<?xml version="1.0" standalone="no"?>
<!DOCTYPE svg PUBLIC "-//W3C//DTD SVG 1.1//EN" "http://www.w3.org/Graphics/SVG/1.1/DTD/svg11.dtd">
<svg t="1564376573590" class="icon" viewBox="0 200 1024 1024" version="1.1" xmlns="http://www.w3.org/2000/svg" p-id="690" xmlns:xlink="http://www.w3.org/1999/xlink" width="32" height="32">
<defs>
<style type="text/css">
</style>
</defs>
<path d="M875.6224 313.9584c-5.2224 0-10.5472 1.9456-14.4384 5.9392L526.4384 654.6432c-3.9936 3.9936-9.216 6.0416-14.4384 6.0416s-10.4448-2.048-14.4384-6.0416L162.816 319.8976c-3.9936-3.9936-9.216-5.9392-14.4384-5.9392s-10.5472 1.9456-14.4384 5.9392c-7.9872 7.9872-7.9872 20.992 0 28.9792l349.184 349.184c7.9872 7.9872 18.432 11.9808 28.9792 11.9808 10.4448 0 20.992-3.9936 28.9792-11.9808l349.184-349.184c7.9872-7.9872 7.9872-20.992 0-28.9792-4.096-3.9936-9.4208-5.9392-14.6432-5.9392z" fill="#ffffff" p-id="691">
</path>
</svg>